<svg width="50" height="236" viewBox="0 0 50 236" fill="none" xmlns="http://www.w3.org/2000/svg">
<path d="M16 19H34V217H16V19Z" fill="white" stroke="#4E4E4E" stroke-width="2"/>
<path d="M16 36H34V217H16V36Z" fill="#9FE8B6" stroke="#5A5A5A" stroke-width="2"/>
<rect x="19" y="116" width="11" height="2" fill="#444444"/>
<rect x="22" y="75" width="5" height="2" fill="#444444"/>
<rect x="22" y="55" width="5" height="2" fill="#444444"/>
<rect x="22" y="95" width="5" height="2" fill="#444444"/>
<rect x="22" y="35" width="5" height="2" fill="#444444"/>
<rect x="22" y="137" width="5" height="2" fill="#444444"/>
<rect x="22" y="157" width="5" height="2" fill="#444444"/>
<rect x="22" y="177" width="5" height="2" fill="#444444"/>
<rect x="22" y="197" width="5" height="2" fill="#444444"/>
<path d="M20.48 15H18.968V4.2H18.932L16.646 6.126L15.746 5.028L19.166 2.256H20.48V15ZM24.686 8.628C24.686 7.908 24.746 7.158 24.866 6.378C24.986 5.598 25.208 4.89 25.532 4.254C25.856 3.606 26.294 3.078 26.846 2.67C27.41 2.25 28.13 2.04 29.006 2.04C29.882 2.04 30.596 2.25 31.148 2.67C31.712 3.078 32.156 3.606 32.48 4.254C32.804 4.89 33.026 5.598 33.146 6.378C33.266 7.158 33.326 7.908 33.326 8.628C33.326 9.348 33.266 10.098 33.146 10.878C33.026 11.658 32.804 12.372 32.48 13.02C32.156 13.656 31.712 14.184 31.148 14.604C30.596 15.012 29.882 15.216 29.006 15.216C28.13 15.216 27.41 15.012 26.846 14.604C26.294 14.184 25.856 13.656 25.532 13.02C25.208 12.372 24.986 11.658 24.866 10.878C24.746 10.098 24.686 9.348 24.686 8.628ZM26.198 8.628C26.198 8.94 26.21 9.288 26.234 9.672C26.258 10.056 26.3 10.446 26.36 10.842C26.432 11.226 26.528 11.604 26.648 11.976C26.78 12.348 26.948 12.678 27.152 12.966C27.368 13.254 27.626 13.488 27.926 13.668C28.226 13.836 28.586 13.92 29.006 13.92C29.426 13.92 29.786 13.836 30.086 13.668C30.386 13.488 30.638 13.254 30.842 12.966C31.058 12.678 31.226 12.348 31.346 11.976C31.478 11.604 31.574 11.226 31.634 10.842C31.706 10.446 31.754 10.056 31.778 9.672C31.802 9.288 31.814 8.94 31.814 8.628C31.814 8.316 31.802 7.968 31.778 7.584C31.754 7.2 31.706 6.816 31.634 6.432C31.574 6.036 31.478 5.652 31.346 5.28C31.226 4.908 31.058 4.578 30.842 4.29C30.638 4.002 30.386 3.774 30.086 3.606C29.786 3.426 29.426 3.336 29.006 3.336C28.586 3.336 28.226 3.426 27.926 3.606C27.626 3.774 27.368 4.002 27.152 4.29C26.948 4.578 26.78 4.908 26.648 5.28C26.528 5.652 26.432 6.036 26.36 6.432C26.3 6.816 26.258 7.2 26.234 7.584C26.21 7.968 26.198 8.316 26.198 8.628Z" fill="#515151"/>
<path d="M21.684 226.779C21.684 226.059 21.744 225.309 21.864 224.529C21.984 223.749 22.206 223.041 22.53 222.405C22.854 221.757 23.292 221.229 23.844 220.821C24.408 220.401 25.128 220.191 26.004 220.191C26.88 220.191 27.594 220.401 28.146 220.821C28.71 221.229 29.154 221.757 29.478 222.405C29.802 223.041 30.024 223.749 30.144 224.529C30.264 225.309 30.324 226.059 30.324 226.779C30.324 227.499 30.264 228.249 30.144 229.029C30.024 229.809 29.802 230.523 29.478 231.171C29.154 231.807 28.71 232.335 28.146 232.755C27.594 233.163 26.88 233.367 26.004 233.367C25.128 233.367 24.408 233.163 23.844 232.755C23.292 232.335 22.854 231.807 22.53 231.171C22.206 230.523 21.984 229.809 21.864 229.029C21.744 228.249 21.684 227.499 21.684 226.779ZM23.196 226.779C23.196 227.091 23.208 227.439 23.232 227.823C23.256 228.207 23.298 228.597 23.358 228.993C23.43 229.377 23.526 229.755 23.646 230.127C23.778 230.499 23.946 230.829 24.15 231.117C24.366 231.405 24.624 231.639 24.924 231.819C25.224 231.987 25.584 232.071 26.004 232.071C26.424 232.071 26.784 231.987 27.084 231.819C27.384 231.639 27.636 231.405 27.84 231.117C28.056 230.829 28.224 230.499 28.344 230.127C28.476 229.755 28.572 229.377 28.632 228.993C28.704 228.597 28.752 228.207 28.776 227.823C28.8 227.439 28.812 227.091 28.812 226.779C28.812 226.467 28.8 226.119 28.776 225.735C28.752 225.351 28.704 224.967 28.632 224.583C28.572 224.187 28.476 223.803 28.344 223.431C28.224 223.059 28.056 222.729 27.84 222.441C27.636 222.153 27.384 221.925 27.084 221.757C26.784 221.577 26.424 221.487 26.004 221.487C25.584 221.487 25.224 221.577 24.924 221.757C24.624 221.925 24.366 222.153 24.15 222.441C23.946 222.729 23.778 223.059 23.646 223.431C23.526 223.803 23.43 224.187 23.358 224.583C23.298 224.967 23.256 225.351 23.232 225.735C23.208 226.119 23.196 226.467 23.196 226.779Z" fill="#515151"/>
<g filter="url(#filter0_d)">
<ellipse cx="25" cy="41.874" rx="15" ry="14.874" fill="#9FE8B6"/>
</g>
<path d="M27.336 44.6227L27.3 44.5867C27.06 44.7187 26.778 44.8147 26.454 44.8747C26.142 44.9347 25.854 44.9647 25.59 44.9647C25.038 44.9647 24.522 44.8687 24.042 44.6767C23.574 44.4847 23.166 44.2147 22.818 43.8667C22.482 43.5067 22.218 43.0867 22.026 42.6067C21.834 42.1147 21.738 41.5687 21.738 40.9687C21.738 40.3447 21.846 39.7867 22.062 39.2947C22.278 38.8027 22.578 38.3887 22.962 38.0527C23.346 37.7047 23.796 37.4407 24.312 37.2607C24.84 37.0687 25.404 36.9727 26.004 36.9727C26.604 36.9727 27.162 37.0687 27.678 37.2607C28.206 37.4407 28.662 37.7047 29.046 38.0527C29.43 38.3887 29.73 38.8027 29.946 39.2947C30.162 39.7867 30.27 40.3447 30.27 40.9687C30.27 41.3407 30.24 41.6827 30.18 41.9947C30.12 42.3067 30.036 42.6067 29.928 42.8947C29.82 43.1827 29.688 43.4647 29.532 43.7407C29.388 44.0047 29.232 44.2747 29.064 44.5507L25.68 49.9327H23.916L27.336 44.6227ZM26.004 43.6687C26.388 43.6687 26.748 43.6087 27.084 43.4887C27.42 43.3567 27.708 43.1767 27.948 42.9487C28.2 42.7087 28.398 42.4267 28.542 42.1027C28.686 41.7667 28.758 41.3887 28.758 40.9687C28.758 40.5607 28.686 40.1887 28.542 39.8527C28.398 39.5167 28.2 39.2347 27.948 39.0067C27.708 38.7667 27.42 38.5867 27.084 38.4667C26.748 38.3347 26.388 38.2687 26.004 38.2687C25.62 38.2687 25.26 38.3347 24.924 38.4667C24.588 38.5867 24.294 38.7667 24.042 39.0067C23.802 39.2347 23.61 39.5167 23.466 39.8527C23.322 40.1887 23.25 40.5607 23.25 40.9687C23.25 41.3887 23.322 41.7667 23.466 42.1027C23.61 42.4267 23.802 42.7087 24.042 42.9487C24.294 43.1767 24.588 43.3567 24.924 43.4887C25.26 43.6087 25.62 43.6687 26.004 43.6687Z" fill="#262626"/>
<defs>
<filter id="filter0_d" x="0" y="17" width="50" height="49.7479" filterUnits="userSpaceOnUse" color-interpolation-filters="sRGB">
<feFlood flood-opacity="0" result="BackgroundImageFix"/>
<feColorMatrix in="SourceAlpha" type="matrix" values="0 0 0 0 0 0 0 0 0 0 0 0 0 0 0 0 0 0 127 0"/>
<feOffset/>
<feGaussianBlur stdDeviation="5"/>
<feColorMatrix type="matrix" values="0 0 0 0 0.658333 0 0 0 0 0.658333 0 0 0 0 0.658333 0 0 0 0.15 0"/>
<feBlend mode="normal" in2="BackgroundImageFix" result="effect1_dropShadow"/>
<feBlend mode="normal" in="SourceGraphic" in2="effect1_dropShadow" result="shape"/>
</filter>
</defs>
</svg>
