<svg width="30" height="238" viewBox="0 0 30 238" fill="none" xmlns="http://www.w3.org/2000/svg">
<path d="M6 19H24V217H6V19Z" fill="white" stroke="#4E4E4E" stroke-width="2"/>
<path d="M5.5 160.5H24.5V217.5H5.5V160.5Z" fill="#6AC55C" stroke="#151515"/>
<rect x="12" y="78" width="5" height="2" fill="#444444"/>
<rect x="12" y="58" width="5" height="2" fill="#444444"/>
<rect x="12" y="38" width="5" height="2" fill="#444444"/>
<rect x="12" y="98" width="5" height="2" fill="#444444"/>
<rect x="12" y="138" width="5" height="2" fill="#444444"/>
<rect x="12" y="158" width="5" height="2" fill="#444444"/>
<rect x="12" y="178" width="5" height="2" fill="#444444"/>
<rect x="12" y="198" width="5" height="2" fill="#444444"/>
<path d="M9.48 15H7.968V4.2H7.932L5.646 6.126L4.746 5.028L8.166 2.256H9.48V15ZM13.686 8.628C13.686 7.908 13.746 7.158 13.866 6.378C13.986 5.598 14.208 4.89 14.532 4.254C14.856 3.606 15.294 3.078 15.846 2.67C16.41 2.25 17.13 2.04 18.006 2.04C18.882 2.04 19.596 2.25 20.148 2.67C20.712 3.078 21.156 3.606 21.48 4.254C21.804 4.89 22.026 5.598 22.146 6.378C22.266 7.158 22.326 7.908 22.326 8.628C22.326 9.348 22.266 10.098 22.146 10.878C22.026 11.658 21.804 12.372 21.48 13.02C21.156 13.656 20.712 14.184 20.148 14.604C19.596 15.012 18.882 15.216 18.006 15.216C17.13 15.216 16.41 15.012 15.846 14.604C15.294 14.184 14.856 13.656 14.532 13.02C14.208 12.372 13.986 11.658 13.866 10.878C13.746 10.098 13.686 9.348 13.686 8.628ZM15.198 8.628C15.198 8.94 15.21 9.288 15.234 9.672C15.258 10.056 15.3 10.446 15.36 10.842C15.432 11.226 15.528 11.604 15.648 11.976C15.78 12.348 15.948 12.678 16.152 12.966C16.368 13.254 16.626 13.488 16.926 13.668C17.226 13.836 17.586 13.92 18.006 13.92C18.426 13.92 18.786 13.836 19.086 13.668C19.386 13.488 19.638 13.254 19.842 12.966C20.058 12.678 20.226 12.348 20.346 11.976C20.478 11.604 20.574 11.226 20.634 10.842C20.706 10.446 20.754 10.056 20.778 9.672C20.802 9.288 20.814 8.94 20.814 8.628C20.814 8.316 20.802 7.968 20.778 7.584C20.754 7.2 20.706 6.816 20.634 6.432C20.574 6.036 20.478 5.652 20.346 5.28C20.226 4.908 20.058 4.578 19.842 4.29C19.638 4.002 19.386 3.774 19.086 3.606C18.786 3.426 18.426 3.336 18.006 3.336C17.586 3.336 17.226 3.426 16.926 3.606C16.626 3.774 16.368 4.002 16.152 4.29C15.948 4.578 15.78 4.908 15.648 5.28C15.528 5.652 15.432 6.036 15.36 6.432C15.3 6.816 15.258 7.2 15.234 7.584C15.21 7.968 15.198 8.316 15.198 8.628Z" fill="#515151"/>
<path d="M10.684 228.628C10.684 227.908 10.744 227.158 10.864 226.378C10.984 225.598 11.206 224.89 11.53 224.254C11.854 223.606 12.292 223.078 12.844 222.67C13.408 222.25 14.128 222.04 15.004 222.04C15.88 222.04 16.594 222.25 17.146 222.67C17.71 223.078 18.154 223.606 18.478 224.254C18.802 224.89 19.024 225.598 19.144 226.378C19.264 227.158 19.324 227.908 19.324 228.628C19.324 229.348 19.264 230.098 19.144 230.878C19.024 231.658 18.802 232.372 18.478 233.02C18.154 233.656 17.71 234.184 17.146 234.604C16.594 235.012 15.88 235.216 15.004 235.216C14.128 235.216 13.408 235.012 12.844 234.604C12.292 234.184 11.854 233.656 11.53 233.02C11.206 232.372 10.984 231.658 10.864 230.878C10.744 230.098 10.684 229.348 10.684 228.628ZM12.196 228.628C12.196 228.94 12.208 229.288 12.232 229.672C12.256 230.056 12.298 230.446 12.358 230.842C12.43 231.226 12.526 231.604 12.646 231.976C12.778 232.348 12.946 232.678 13.15 232.966C13.366 233.254 13.624 233.488 13.924 233.668C14.224 233.836 14.584 233.92 15.004 233.92C15.424 233.92 15.784 233.836 16.084 233.668C16.384 233.488 16.636 233.254 16.84 232.966C17.056 232.678 17.224 232.348 17.344 231.976C17.476 231.604 17.572 231.226 17.632 230.842C17.704 230.446 17.752 230.056 17.776 229.672C17.8 229.288 17.812 228.94 17.812 228.628C17.812 228.316 17.8 227.968 17.776 227.584C17.752 227.2 17.704 226.816 17.632 226.432C17.572 226.036 17.476 225.652 17.344 225.28C17.224 224.908 17.056 224.578 16.84 224.29C16.636 224.002 16.384 223.774 16.084 223.606C15.784 223.426 15.424 223.336 15.004 223.336C14.584 223.336 14.224 223.426 13.924 223.606C13.624 223.774 13.366 224.002 13.15 224.29C12.946 224.578 12.778 224.908 12.646 225.28C12.526 225.652 12.43 226.036 12.358 226.432C12.298 226.816 12.256 227.2 12.232 227.584C12.208 227.968 12.196 228.316 12.196 228.628Z" fill="#515151"/>
<rect x="10" y="116" width="11" height="2" fill="#444444"/>
<circle cx="15" cy="162" r="15" fill="#6AC55C"/>
<circle cx="15" cy="162" r="15" stroke="#03865F"/>
<path d="M16.542 164.68H18.378V166.084H16.542V169H15.03V166.084H9.63V164.41L14.688 156.256H16.542V164.68ZM15.03 158.02H14.994L10.926 164.68H15.03V158.02Z" fill="#262626"/>
</svg>
